<svg width="90" height="77" viewBox="0 0 90 77" fill="none" xmlns="http://www.w3.org/2000/svg">
<path d="M88.7199 29.7576H84.3239V21.2118C84.3239 20.2164 83.7512 19.391 83.0607 19.391H75.9361V10.8208C75.9361 9.82545 75.3634 9 74.6729 9H66.285C65.5945 9 65.0218 9.82545 65.0218 10.8208V29.7576H36.7424V10.8208C36.7424 9.82545 36.1697 9 35.4792 9H27.0913C26.4008 9 25.8281 9.82545 25.8281 10.8208V19.3667H18.7035C18.013 19.3667 17.4403 20.1921 17.4403 21.1875V29.7334H13.2632C12.5727 29.7334 12 30.5588 12 31.5542V44.1302C12 45.1256 12.5727 45.951 13.2632 45.951H17.4571V54.8125C17.4571 55.8079 18.0298 56.6333 18.7204 56.6333H25.845V65.1792C25.845 66.1745 26.4176 67 27.1082 67H35.496C36.1866 67 36.7592 66.1745 36.7592 65.1792V45.9267H65.0387V65.1792C65.0387 66.1745 65.6113 67 66.3019 67H74.6897C75.3803 67 75.9529 66.1745 75.9529 65.1792V56.6333H83.0775C83.7681 56.6333 84.3407 55.8079 84.3407 54.8125V45.951H88.7368C89.4273 45.951 90 45.1256 90 44.1302V31.5542C89.9832 30.5588 89.4105 29.7576 88.7199 29.7576ZM17.4571 42.3336H14.5265V42.3093V33.3993H17.4571V42.3336ZM25.845 53.0159H19.9836V23.0326H25.845V53.0159ZM34.2159 63.3826H28.3546V12.6417H34.2159V63.3826ZM65.0218 42.3336H36.7424V42.3093V33.3993H65.0218V42.3336ZM73.4096 63.3826H67.5483V12.6417H73.4096V63.3826ZM81.7974 53.0159H75.9361V23.0326H81.7974V53.0159ZM87.4567 42.3093H84.3239V33.3993H87.4567V42.3093Z" fill="white"/>
</svg>
