<?xml version="1.0" encoding="utf-8"?>
<svg width="90" height="77" viewBox="0 0 90 77" fill="none" xmlns="http://www.w3.org/2000/svg" xmlns:bx="https://boxy-svg.com">
  <defs>
    <bx:guide x="135.1897141359587" y="23.622776639424238" angle="0"/>
  </defs>
  <path d="M 88.522 29.758 L 83.45 29.758 L 83.45 21.212 C 83.45 20.216 82.789 19.391 81.991 19.391 L 73.769 19.391 L 73.769 10.821 C 73.769 9.825 73.108 9 72.311 9 L 62.631 9 C 61.834 9 61.173 9.825 61.173 10.821 L 61.173 29.758 L 28.536 29.758 L 28.536 10.821 C 28.536 9.825 27.875 9 27.078 9 L 17.398 9 C 16.601 9 15.94 9.825 15.94 10.821 L 15.94 19.367 L 7.717 19.367 C 6.92 19.367 6.259 20.192 6.259 21.188 L 6.259 29.733 L 1.439 29.733 C 0.642 29.733 -0.019 30.559 -0.019 31.554 L -0.019 44.13 C -0.019 45.126 0.642 45.951 1.439 45.951 L 6.279 45.951 L 6.279 54.813 C 6.279 55.808 6.94 56.633 7.737 56.633 L 15.959 56.633 L 15.959 65.179 C 15.959 66.175 16.62 67 17.418 67 L 27.097 67 C 27.895 67 28.555 66.175 28.555 65.179 L 28.555 45.927 L 61.192 45.927 L 61.192 65.179 C 61.192 66.175 61.853 67 62.65 67 L 72.33 67 C 73.127 67 73.788 66.175 73.788 65.179 L 73.788 56.633 L 82.011 56.633 C 82.808 56.633 83.469 55.808 83.469 54.813 L 83.469 45.951 L 88.542 45.951 C 89.339 45.951 90 45.126 90 44.13 L 90 31.554 C 89.981 30.559 89.32 29.758 88.522 29.758 Z M 6.279 42.334 L 2.896 42.334 L 2.896 42.309 L 2.896 33.399 L 6.279 33.399 L 6.279 42.334 Z M 15.959 53.016 L 9.195 53.016 L 9.195 23.033 L 15.959 23.033 L 15.959 53.016 Z M 25.62 63.383 L 18.855 63.383 L 18.855 12.642 L 25.62 12.642 L 25.62 63.383 Z M 61.173 42.334 L 28.536 42.334 L 28.536 42.309 L 28.536 33.399 L 61.173 33.399 L 61.173 42.334 Z M 70.854 63.383 L 64.089 63.383 L 64.089 12.642 L 70.854 12.642 L 70.854 63.383 Z M 80.533 53.016 L 73.769 53.016 L 73.769 23.033 L 80.533 23.033 L 80.533 53.016 Z M 87.064 42.309 L 83.45 42.309 L 83.45 33.399 L 87.064 33.399 L 87.064 42.309 Z" fill="white" style=""/>
</svg>